<svg width="26" height="32" viewBox="0 0 26 32" fill="none" xmlns="http://www.w3.org/2000/svg">
<path d="M7.9999 15.2C8.42425 15.2 8.83121 15.0314 9.13127 14.7314C9.43133 14.4313 9.5999 14.0243 9.5999 13.6C9.5999 13.1757 9.43133 12.7687 9.13127 12.4686C8.83121 12.1686 8.42425 12 7.9999 12C7.57556 12 7.16859 12.1686 6.86853 12.4686C6.56847 12.7687 6.3999 13.1757 6.3999 13.6C6.3999 14.0243 6.56847 14.4313 6.86853 14.7314C7.16859 15.0314 7.57556 15.2 7.9999 15.2ZM11.1999 13.6C11.1999 13.1757 11.3685 12.7687 11.6685 12.4686C11.9686 12.1686 12.3756 12 12.7999 12H17.5999C18.0242 12 18.4312 12.1686 18.7313 12.4686C19.0313 12.7687 19.1999 13.1757 19.1999 13.6C19.1999 14.0243 19.0313 14.4313 18.7313 14.7314C18.4312 15.0314 18.0242 15.2 17.5999 15.2H12.7999C12.3756 15.2 11.9686 15.0314 11.6685 14.7314C11.3685 14.4313 11.1999 14.0243 11.1999 13.6ZM12.7999 16.8C12.3756 16.8 11.9686 16.9686 11.6685 17.2686C11.3685 17.5687 11.1999 17.9757 11.1999 18.4C11.1999 18.8243 11.3685 19.2313 11.6685 19.5314C11.9686 19.8314 12.3756 20 12.7999 20H17.5999C18.0242 20 18.4312 19.8314 18.7313 19.5314C19.0313 19.2313 19.1999 18.8243 19.1999 18.4C19.1999 17.9757 19.0313 17.5687 18.7313 17.2686C18.4312 16.9686 18.0242 16.8 17.5999 16.8H12.7999ZM12.7999 21.6C12.3756 21.6 11.9686 21.7686 11.6685 22.0686C11.3685 22.3687 11.1999 22.7757 11.1999 23.2C11.1999 23.6243 11.3685 24.0313 11.6685 24.3314C11.9686 24.6314 12.3756 24.8 12.7999 24.8H17.5999C18.0242 24.8 18.4312 24.6314 18.7313 24.3314C19.0313 24.0313 19.1999 23.6243 19.1999 23.2C19.1999 22.7757 19.0313 22.3687 18.7313 22.0686C18.4312 21.7686 18.0242 21.6 17.5999 21.6H12.7999ZM9.5999 18.4C9.5999 18.8243 9.43133 19.2313 9.13127 19.5314C8.83121 19.8314 8.42425 20 7.9999 20C7.57556 20 7.16859 19.8314 6.86853 19.5314C6.56847 19.2313 6.3999 18.8243 6.3999 18.4C6.3999 17.9757 6.56847 17.5687 6.86853 17.2686C7.16859 16.9686 7.57556 16.8 7.9999 16.8C8.42425 16.8 8.83121 16.9686 9.13127 17.2686C9.43133 17.5687 9.5999 17.9757 9.5999 18.4ZM7.9999 24.8C8.42425 24.8 8.83121 24.6314 9.13127 24.3314C9.43133 24.0313 9.5999 23.6243 9.5999 23.2C9.5999 22.7757 9.43133 22.3687 9.13127 22.0686C8.83121 21.7686 8.42425 21.6 7.9999 21.6C7.57556 21.6 7.16859 21.7686 6.86853 22.0686C6.56847 22.3687 6.3999 22.7757 6.3999 23.2C6.3999 23.6243 6.56847 24.0313 6.86853 24.3314C7.16859 24.6314 7.57556 24.8 7.9999 24.8Z" fill="white"/>
<path d="M8 0C7.57565 0 7.16869 0.168571 6.86863 0.468629C6.56857 0.768687 6.4 1.17565 6.4 1.6H3.2C2.35131 1.6 1.53737 1.93714 0.937258 2.53726C0.337142 3.13737 0 3.95131 0 4.8V28.8C0 29.6487 0.337142 30.4626 0.937258 31.0627C1.53737 31.6629 2.35131 32 3.2 32H22.4C23.2487 32 24.0626 31.6629 24.6627 31.0627C25.2629 30.4626 25.6 29.6487 25.6 28.8V4.8C25.6 3.95131 25.2629 3.13737 24.6627 2.53726C24.0626 1.93714 23.2487 1.6 22.4 1.6H19.2C19.2 1.17565 19.0314 0.768687 18.7314 0.468629C18.4313 0.168571 18.0243 0 17.6 0H8ZM19.2 4.8H22.4V28.8H3.2V4.8H6.4V6.4C6.4 6.82435 6.56857 7.23131 6.86863 7.53137C7.16869 7.83143 7.57565 8 8 8H17.6C18.0243 8 18.4313 7.83143 18.7314 7.53137C19.0314 7.23131 19.2 6.82435 19.2 6.4V4.8ZM9.6 4.8V3.2H16V4.8H9.6Z" fill="white"/>
</svg>
