<svg width="32" height="32" viewBox="0 0 32 32" fill="none" xmlns="http://www.w3.org/2000/svg">
<path d="M16.0004 3.20527C15.5762 3.20527 15.1694 3.37378 14.8695 3.67372C14.5695 3.97367 14.401 4.38048 14.401 4.80466C14.401 7.51083 11.1287 8.86712 9.21418 6.95264C9.06664 6.79989 8.89016 6.67804 8.69503 6.59422C8.4999 6.5104 8.29002 6.46628 8.07766 6.46443C7.86529 6.46258 7.65469 6.50305 7.45813 6.58347C7.26157 6.66389 7.08299 6.78265 6.93282 6.93282C6.78265 7.08299 6.66389 7.26157 6.58347 7.45813C6.50305 7.65469 6.46258 7.86529 6.46443 8.07766C6.46628 8.29002 6.5104 8.4999 6.59422 8.69503C6.67804 8.89016 6.79989 9.06664 6.95264 9.21418C8.86712 11.1287 7.51243 14.401 4.80466 14.401C4.38048 14.401 3.97367 14.5695 3.67372 14.8695C3.37378 15.1694 3.20527 15.5762 3.20527 16.0004C3.20527 16.4246 3.37378 16.8314 3.67372 17.1313C3.97367 17.4313 4.38048 17.5998 4.80466 17.5998C7.51083 17.5998 8.86712 20.8721 6.95264 22.7866C6.6613 23.0883 6.50009 23.4923 6.50374 23.9116C6.50738 24.331 6.67559 24.7321 6.97213 25.0287C7.26867 25.3252 7.66981 25.4934 8.08917 25.4971C8.50852 25.5007 8.91253 25.3395 9.21418 25.0482C11.1287 23.1337 14.401 24.4884 14.401 27.1961C14.401 27.6203 14.5695 28.0271 14.8695 28.3271C15.1694 28.627 15.5762 28.7955 16.0004 28.7955C16.4246 28.7955 16.8314 28.627 17.1313 28.3271C17.4313 28.0271 17.5998 27.6203 17.5998 27.1961C17.5998 24.49 20.8721 23.1337 22.7866 25.0482C22.9342 25.2009 23.1106 25.3228 23.3058 25.4066C23.5009 25.4904 23.7108 25.5345 23.9231 25.5364C24.1355 25.5382 24.3461 25.4977 24.5427 25.4173C24.7392 25.3369 24.9178 25.2182 25.068 25.068C25.2182 24.9178 25.3369 24.7392 25.4173 24.5427C25.4977 24.3461 25.5382 24.1355 25.5364 23.9231C25.5345 23.7108 25.4904 23.5009 25.4066 23.3058C25.3228 23.1106 25.2009 22.9342 25.0482 22.7866C23.1337 20.8721 24.4884 17.5998 27.1961 17.5998C27.6203 17.5998 28.0271 17.4313 28.3271 17.1313C28.627 16.8314 28.7955 16.4246 28.7955 16.0004C28.7955 15.5762 28.627 15.1694 28.3271 14.8695C28.0271 14.5695 27.6203 14.401 27.1961 14.401C24.49 14.401 23.1337 11.1287 25.0482 9.21418C25.3395 8.91253 25.5007 8.50852 25.4971 8.08917C25.4934 7.66981 25.3252 7.26867 25.0287 6.97213C24.7321 6.67559 24.331 6.50738 23.9116 6.50374C23.4923 6.50009 23.0883 6.6613 22.7866 6.95264C20.8721 8.86712 17.5998 7.51243 17.5998 4.80466C17.5998 4.38048 17.4313 3.97367 17.1313 3.67372C16.8314 3.37378 16.4246 3.20527 16.0004 3.20527ZM11.215 4.448C11.3035 3.23929 11.846 2.10883 12.7337 1.28373C13.6214 0.458621 14.7885 0 16.0004 0C17.2123 0 18.3794 0.458621 19.2671 1.28373C20.1548 2.10883 20.6973 3.23929 20.7858 4.448C21.7035 3.65979 22.8851 3.24735 24.094 3.29325C25.3029 3.33915 26.4499 3.84001 27.3052 4.69555C28.1605 5.55108 28.6611 6.69814 28.7067 7.90704C28.7523 9.11594 28.3396 10.2975 27.5512 11.215C28.7599 11.3033 29.8905 11.8456 30.7157 12.7332C31.541 13.6208 31.9998 14.7877 32 15.9997C32.0002 17.2116 31.5418 18.3787 30.7168 19.2665C29.8919 20.1544 28.7615 20.6971 27.5528 20.7858C28.341 21.7035 28.7535 22.8851 28.7076 24.094C28.6616 25.3029 28.1608 26.4499 27.3053 27.3052C26.4497 28.1605 25.3027 28.6611 24.0938 28.7067C22.8849 28.7523 21.7033 28.3396 20.7858 27.5512C20.6973 28.7599 20.1548 29.8904 19.2671 30.7155C18.3794 31.5406 17.2123 31.9992 16.0004 31.9992C14.7885 31.9992 13.6214 31.5406 12.7337 30.7155C11.846 29.8904 11.3035 28.7599 11.215 27.5512C10.2975 28.3396 9.11594 28.7523 7.90704 28.7067C6.69814 28.6611 5.55108 28.1605 4.69555 27.3052C3.84001 26.4499 3.33915 25.3029 3.29325 24.094C3.24735 22.8851 3.65979 21.7035 4.448 20.7858C3.23929 20.6973 2.10883 20.1548 1.28373 19.2671C0.458621 18.3794 0 17.2123 0 16.0004C0 14.7885 0.458621 13.6214 1.28373 12.7337C2.10883 11.846 3.23929 11.3035 4.448 11.215C3.65739 10.2976 3.24293 9.11519 3.28779 7.90495C3.33264 6.69471 3.83349 5.5462 4.68985 4.68985C5.5462 3.83349 6.69471 3.33264 7.90495 3.28779C9.11519 3.24293 10.2976 3.65739 11.215 4.448Z" fill="white"/>
<path d="M16.0003 12.8016C15.152 12.8016 14.3384 13.1386 13.7385 13.7385C13.1386 14.3384 12.8016 15.152 12.8016 16.0003C12.8016 16.8487 13.1386 17.6623 13.7385 18.2622C14.3384 18.8621 15.152 19.1991 16.0003 19.1991C16.8487 19.1991 17.6623 18.8621 18.2622 18.2622C18.8621 17.6623 19.1991 16.8487 19.1991 16.0003C19.1991 15.152 18.8621 14.3384 18.2622 13.7385C17.6623 13.1386 16.8487 12.8016 16.0003 12.8016ZM11.4773 11.4773C12.0674 10.8662 12.7734 10.3789 13.5539 10.0436C14.3344 9.70828 15.1739 9.53179 16.0234 9.52441C16.8728 9.51703 17.7153 9.6789 18.5015 10.0006C19.2877 10.3222 20.002 10.7973 20.6027 11.398C21.2034 11.9987 21.6784 12.713 22.0001 13.4992C22.3218 14.2854 22.4837 15.1279 22.4763 15.9773C22.4689 16.8268 22.2924 17.6663 21.9571 18.4468C21.6218 19.2273 21.1345 19.9333 20.5234 20.5234C19.3168 21.6888 17.7008 22.3336 16.0234 22.3191C14.3459 22.3045 12.7414 21.6317 11.5552 20.4455C10.369 19.2593 9.69621 17.6547 9.68164 15.9773C9.66706 14.2999 10.3119 12.6839 11.4773 11.4773Z" fill="white"/>
</svg>
