<svg width="32" height="32" viewBox="0 0 32 32" fill="none" xmlns="http://www.w3.org/2000/svg">
<path d="M22.3885 0.493119C22.7043 0.177375 23.1326 0 23.5792 0C24.0258 0 24.4541 0.177375 24.77 0.493119L31.5069 7.23004C31.8226 7.54588 32 7.97419 32 8.42079C32 8.86738 31.8226 9.2957 31.5069 9.61154L9.6119 31.5065C9.29612 31.8224 8.8678 31.9999 8.42115 32H1.68423C1.23754 32 0.809154 31.8226 0.493299 31.5067C0.177445 31.1908 0 30.7625 0 30.3158V23.5789C9.53904e-05 23.1322 0.177603 22.7039 0.493479 22.3881L17.3358 5.54581L22.3885 0.493119ZM18.5265 9.11806L3.36846 24.2761V28.6315H7.72388L22.8819 13.4735L18.5265 9.11806ZM25.2634 11.092L27.9346 8.42079L23.5792 4.06537L20.908 6.73656L25.2634 11.092Z" fill="white"/>
</svg>
