<svg width="28" height="32" viewBox="0 0 28 32" fill="none" xmlns="http://www.w3.org/2000/svg">
<path d="M14.069 0.468463C14.369 0.168506 14.7759 0 15.2002 0C15.6244 0 16.0313 0.168506 16.3314 0.468463L21.1314 5.26851C21.4314 5.56856 21.5999 5.97546 21.5999 6.39973C21.5999 6.82399 21.4314 7.23089 21.1314 7.53094L16.3314 12.331C16.0296 12.6224 15.6254 12.7837 15.2059 12.7801C14.7864 12.7764 14.3851 12.6082 14.0884 12.3115C13.7918 12.0148 13.6235 11.6135 13.6199 11.194C13.6162 10.7745 13.7775 10.3703 14.069 10.0686L16.1378 7.99974H13.6001C7.92328 7.99974 3.20003 12.723 3.20003 18.3999C3.20003 24.0767 7.92328 28.8 13.6001 28.8C19.277 28.8 24.0003 24.0767 24.0003 18.3999C24.0003 17.9755 24.1688 17.5685 24.4689 17.2685C24.7689 16.9684 25.1759 16.7998 25.6003 16.7998C26.0246 16.7998 26.4316 16.9684 26.7317 17.2685C27.0317 17.5685 27.2003 17.9755 27.2003 18.3999C27.2003 25.8431 21.0434 32 13.6001 32C6.15687 32 0 25.8431 0 18.3999C0 10.9566 6.15687 4.79971 13.6001 4.79971H16.1378L14.069 2.73089C13.769 2.43084 13.6005 2.02394 13.6005 1.59968C13.6005 1.17541 13.769 0.768511 14.069 0.468463Z" fill="white"/>
</svg>
